<?xml version="1.0" standalone="no"?>
<!DOCTYPE svg PUBLIC "-//W3C//DTD SVG 20010904//EN"
 "http://www.w3.org/TR/2001/REC-SVG-20010904/DTD/svg10.dtd">
<svg version="1.0" xmlns="http://www.w3.org/2000/svg"
 width="700.000000pt" height="700.000000pt" viewBox="0 0 700.000000 700.000000"
 preserveAspectRatio="xMidYMid meet">
<metadata>
Created by potrace 1.14, written by Peter Selinger 2001-2017
</metadata>
<g transform="translate(0.000000,700.000000) scale(0.100000,-0.100000)"
fill="#000000" stroke="none">
<path d="M1884 5658 c128 -305 1363 -3129 1382 -3160 95 -152 248 -264 422
-309 63 -16 110 -19 295 -19 171 0 218 3 214 13 -14 35 -1349 3002 -1377 3058
-76 156 -208 288 -365 365 -137 67 -183 76 -397 81 l-188 5 14 -34z"/>
<path d="M2973 5613 c30 -43 121 -175 202 -293 315 -456 688 -972 1197 -1657
309 -415 331 -443 380 -467 29 -14 64 -26 78 -26 36 0 89 19 122 43 15 11 249
325 520 697 l493 677 5 -1016 c5 -801 8 -1024 19 -1056 24 -74 73 -153 126
-206 114 -113 192 -139 416 -139 l159 0 0 1760 0 1760 -288 0 c-322 0 -356 -5
-480 -67 -40 -20 -96 -59 -125 -87 -29 -28 -257 -331 -506 -674 -449 -617
-453 -622 -470 -600 -10 13 -210 289 -446 613 -458 631 -512 696 -626 752
-120 59 -150 63 -506 63 l-323 0 53 -77z"/>
<path d="M1009 3778 l-715 -1603 390 -3 c231 -1 392 2 394 7 2 5 28 49 58 98
124 199 281 347 459 433 179 87 337 114 650 108 l190 -3 56 28 c84 41 143 98
181 175 29 58 33 76 33 147 0 138 -62 237 -187 300 l-71 35 -383 0 -383 0 43
103 c59 140 129 358 160 497 45 203 59 345 53 545 -5 194 -24 310 -73 453 -26
75 -99 229 -126 265 -11 15 -98 -174 -729 -1585z"/>
<path d="M317 1923 c-4 -3 -7 -51 -7 -105 l0 -98 3190 0 3191 0 -3 103 -3 102
-3181 3 c-1749 1 -3184 -1 -3187 -5z"/>
<path d="M310 1440 l0 -130 3190 0 3190 0 0 130 0 130 -3190 0 -3190 0 0 -130z"/>
</g>
</svg>
