<?xml version="1.0" encoding="utf-8"?>
<svg xmlns="http://www.w3.org/2000/svg" version="1.0" viewBox="0 0 100 100">
    <!-- https://aspose.app & https://vectorizer.ai/ & https://svgomg.net/ & https://boxy-svg.com & https://favicon.io/ & https://realfavicongenerator.net/ & https://inkscape.org/ -->
    <style>
        * {
            --time: 2s;
            fill: #000;
            stroke: #000;
        }
        .theme {
            fill: #f27d51;
            stroke: #f27d51;
        }
        .shake {
            transform-origin: center;
            animation: shake var(--time) linear infinite;
            animation-delay: calc(var(--time) * 0.7);
        }
        .pulse > * {
            animation: pulse calc(var(--time) * 2) linear infinite;
        }
        .pulse > :first-child {
            animation-delay: calc(var(--time) * -1);
        }
        @keyframes shake {
            0%, 10%, 20% { transform: rotate(0deg); }
            5% { transform: rotate(5deg); }
            15% { transform: rotate(-5deg); }
        }
        @keyframes pulse {
            0%, 45%, 100% { opacity: 1; }
            50%, 95% { opacity: 0; }
        }
    </style>
    <rect style="fill: #fff;" x="0.5" y="0.5" height="99" width="99">
        <animate attributeName="rx" values="0;15;0" dur="5s" repeatCount="indefinite"/>
    </rect>
    <!-- <g transform="translate(0,7.71)"> -->
    <path d="m 5,60.79 19.74,-44.22 c 6.36,11.19 -1.61,26.23 -1.61,26.23 h 11.29 c 5.06,1.1 4.91,7.44 0,8.72 -4.21,0.19 -13.25,-2.06 -19.45,9.27 z"/>
    <path class="theme shake" d="m 59.24,60.79 h -4.18 c -3.72,0 -7.08,-2.21 -8.56,-5.62 L 27.52,11.51 H 30 c 4.31,0 8.22,2.53 9.99,6.46 z"/>
    <path d="m 69.11,32.67 13.08,-17.96 c 1.46,-2.01 3.8,-3.19 6.28,-3.19 H 95 v 49.28 h -2.82 c -3.47,0 -6.29,-2.81 -6.29,-6.29 v -29.62 l -14.9,20.46 c -1.04,1.43 -2.74,1.44 -3.8,0.03 -8.34,-11.1 -16.67,-22.42 -24.45,-33.87 h 7 c 2.48,0 4.82,1.19 6.28,3.19 z"/>
    <rect x="5" y="65.334" width="90" height="1.82"></rect>
    <rect x="5" y="70.334" width="90" height="2.73" class="theme"></rect>
    <!-- </g> -->
    <g class="pulse">
        <!-- <style>text { font-family: 'Arial', sans-serif; font-weight: bold; }</style> -->
        <g>
            <!-- <text x="95" y="89" textLength="90" font-size="14" style="direction: rtl;">لصيـانة <tspan>السيـارات</tspan></text> -->
            <path d="M94.5 87h-3.38v-1.19h2.69l-.81-5.8-.36-.17q0-.47.08-.88.08-.42.25-.81l.1.08q0 .4.44.59.34.14.69.27 0 .34-.05.73-.05.39-.13.58l-.33-.11.81 5.36zm-4.07 0h-8.21q-.37 0-.7-.12-.25-.1-.59-.31-.29.25-.57.34-.29.09-.92.09h-1.33v-1.19h1.32q.55 0 .79-.1.4-.16.4-.63 0-.2-.03-.4-.02-.21-.07-.44l.28-.41q.24.93.66 1.44.44.54 1.05.54.57 0 1.35-.26.83-.28 1.44-.71.98-.7 1.2-.83.55-.36 1-.51.51-.17 1.11-.17.93 0 1.4.54.44.5.44 1.4zm-1.11-1.72q0-.33-.42-.52t-.97-.19q-.68 0-1.65.46l-1.54.78h3.15q.75 0 1.09-.13.34-.13.34-.4zM77.42 87h-3.9v-1.19h3.4q0-.81-.19-1.23-.13-.29-.64-.85l.53-1.11q.49.62.62.97.18.53.18 1.74zm-.06 1.35-.51.99-1.12-.57.52-.99zm-1.56.64-.51.98-1.13-.58.53-.98zM72.83 87h-.96q-.46 0-.75-.38-.25-.33-.38-.98-.12-.65-.19-1.6-.04-.77-.09-1.59-.04-.81-.12-1.23-.07-.42-.19-.69-.15-.33-.42-.57l.84-1.33q.27.82.38 1.96.07.71.14 3.36.12 1.22.36 1.56.19.29.42.29h.96zm-4.38 0h-3.9v-1.19h3.4q0-.81-.19-1.23-.13-.29-.64-.85l.53-1.11q.49.62.62.97.18.53.18 1.74zm-.54-6.32-.53.99-1.11-.57.51-1zM63.86 87h-.98q-.49 0-.87-.84-.28-.63-.45-1.62-.21.38-.52.59-.31.21-.66.21-.79 0-1.31-.1-.52-.11-.52-.27 0-.59.77-1.3.77-.72 1.91-1.25l-.06-.29q-.04-.23-.04-.29 0-.23.16-.52.13-.23.34-.48.07.42.14.82.08.4.17.82l.21 1.18q.17.97.31 1.44.21.71.44.71h.98zm-2.39-3.06-.13-.75q-.59.21-.94.44-.34.23-.57.6.14.06.33.1.19.03.53.03.41 0 .78-.43zm.64-5.12-.51.99-1.12-.57.52-.99zm-1.56.64-.51.98-1.13-.58.53-.98z"/>
            <path class="theme" d="M52.3 85.25q0 .55-.2 1.06-.1.27-.44.87l-.12-.07q.02-.2.03-.46.02-.26.02-.35 0-.71-.12-1.98-.11-1.28-.27-2.67-.1-.84-.21-1.72.14-.3.31-.65.18-.35.33-.66.11.78.27 2.13.17 1.35.27 2.44.12 1.35.12 2.04zm-3.48 1.74h-3.38V85.8h2.69l-.81-5.8-.36-.17q0-.47.08-.88.08-.42.25-.81l.1.08q0 .4.44.59.34.14.69.27 0 .34-.05.73-.05.39-.13.58l-.33-.11.81 5.36zm-4.07 0h-.53q-.44 0-.75-.12t-.57-.34q-.32.25-.56.33-.35.12-.96.12h-.44q-.36 0-.71-.14-.23-.09-.57-.29-.33.25-.6.34-.27.09-.89.09h-1.32v-1.17h1.32q.55 0 .79-.1.4-.16.4-.63 0-.2-.02-.4t-.08-.44l.28-.41q.19.63.31.92.22.5.48.75.31.31.75.31h.46q.51 0 .76-.16.27-.18.27-.57 0-.21-.03-.41-.03-.2-.08-.43l.29-.41.14.64q.18.76.45 1.05.23.26.63.26.18 0 .29-.11.12-.12.12-.29 0-.38-.28-.81-.05-.07-.33-.44l.44-.75q.28.42.38.73.15.46.15 1.24zm-8.6 0h-3.89V85.8h3.4q0-.81-.19-1.23-.13-.29-.64-.85l.53-1.11q.49.62.62.97.18.53.18 1.74zm-.06 1.35-.51.99-1.12-.57.52-.99zm-1.56.64-.51.98-1.13-.58.53-.98zM31.57 87h-.96q-.46 0-.75-.38-.25-.33-.38-.98-.12-.65-.19-1.6-.04-.77-.09-1.59-.04-.81-.12-1.23-.07-.42-.19-.69-.15-.33-.42-.57l.84-1.33q.27.82.38 1.96.07.71.14 3.36.12 1.22.36 1.56.19.29.42.29h.96zm-4.38 0q0 .75-.64 1.56-.56.71-1.39 1.22-.79.49-1.31.49-.47 0-1.02-.14-.42-.1-1-.32-.49-.18-.98-.37l.12-.27q.45.09.94.18.49.1.89.1.88 0 1.83-.56.86-.51 1.47-1.29.61-.79.61-1.42 0-.54-.31-1.13-.25-.48-.71-.98l.39-1.07q.56.52.83 1.04.3.59.3 1.31zm-8.6-1.74q0 .55-.2 1.06-.1.27-.44.87l-.12-.07q.02-.2.03-.46.02-.26.02-.35 0-.71-.12-1.98-.11-1.28-.27-2.67-.1-.84-.21-1.72.14-.3.31-.65.18-.35.33-.66.11.78.27 2.13.17 1.35.27 2.44.12 1.35.12 2.04zM15.12 87H8.6q-1.31 0-2.09-.46-.98-.57-.98-1.8 0-.64.29-1.3.1-.24.49-.91l.21.13q-.15.31-.29.63-.2.49-.2.87 0 .81.85 1.25.76.4 1.92.4h5.79v-.18q0-.77-.18-1.24-.18-.49-.63-.83l.51-1.12q.3.38.36.47.46.77.46 2.23zm-3.22-6.21-.51.99-1.12-.57.52-.99zm-1.56.63-.51.98-1.13-.58.53-.99Z"/>
        </g>
        <g>
            <!-- <text x="5" y="88.334" textLength="90" font-size="11.5"><tspan>CAR</tspan> SERVICES</text> -->
            <path class="theme" d="M12.43 87.73c-.21.09-.39.17-.56.25-.17.08-.38.16-.65.25-.23.07-.48.13-.75.18-.27.05-.56.08-.88.08-.61 0-1.16-.08-1.66-.25a3.46 3.46 0 0 1-1.29-.8 3.65 3.65 0 0 1-.84-1.36c-.2-.55-.3-1.19-.3-1.92 0-.69.1-1.3.29-1.85.19-.54.47-1 .84-1.38.35-.36.78-.64 1.29-.83.51-.19 1.07-.29 1.68-.29.45 0 .89.05 1.34.16.45.11.94.3 1.49.57v1.32h-.08c-.46-.39-.92-.67-1.37-.84-.45-.17-.94-.26-1.45-.26-.42 0-.8.07-1.15.21-.34.13-.64.34-.9.63-.26.28-.46.64-.61 1.07-.14.43-.21.92-.21 1.48 0 .59.08 1.09.24 1.52.16.42.37.76.62 1.03.26.28.57.49.92.62.35.13.72.2 1.11.2.53 0 1.03-.09 1.5-.28.47-.19.9-.46 1.31-.83h.08zm8.87.6h-1.18L19.3 86h-3.62l-.82 2.33h-1.13l3.04-8.36h1.48zm-2.35-3.28-1.47-4.1-1.47 4.1zm10.82 3.28h-1.44l-2.8-3.32h-1.56v3.32h-1.11v-8.36h2.34c.51 0 .93.03 1.26.1.34.07.64.18.91.35.3.19.54.43.71.72.17.29.26.65.26 1.1 0 .6-.15 1.11-.45 1.52-.3.41-.72.71-1.25.92zm-2.6-6.01c0-.24-.04-.45-.13-.63-.08-.19-.22-.34-.42-.47-.16-.11-.35-.18-.57-.22-.22-.05-.48-.07-.78-.07h-1.3v3.16h1.12c.35 0 .66-.03.92-.09.26-.07.48-.18.67-.35.17-.16.29-.34.37-.54.08-.21.12-.47.12-.78z"/>
            <path d="M41.41 85.95c0 .33-.08.65-.23.97-.15.32-.36.59-.63.81-.3.24-.65.43-1.05.56-.4.13-.88.2-1.44.2-.6 0-1.14-.06-1.63-.17-.48-.11-.97-.28-1.47-.5v-1.4h.08c.42.35.91.62 1.47.81.55.19 1.07.29 1.56.29.69 0 1.22-.13 1.61-.39.39-.26.58-.6.58-1.03 0-.37-.09-.65-.28-.82-.18-.17-.46-.31-.83-.41-.28-.07-.59-.14-.92-.19-.33-.05-.67-.11-1.04-.19-.74-.16-1.29-.43-1.65-.8-.35-.38-.53-.88-.53-1.49 0-.7.3-1.27.89-1.72.59-.45 1.34-.67 2.25-.67.59 0 1.13.06 1.62.17.49.11.93.25 1.3.42v1.31h-.08c-.32-.27-.74-.49-1.26-.67-.51-.18-1.04-.27-1.59-.27-.59 0-1.07.12-1.44.37-.36.25-.54.56-.54.95 0 .35.09.62.27.82.18.2.5.35.95.45.24.05.58.12 1.02.19.44.07.81.15 1.12.23.62.17 1.09.42 1.4.75.31.33.47.8.47 1.4zm7.57 2.38h-5.51v-8.36h5.51v.99h-4.4v2.29h4.4v.99h-4.4v3.11h4.4zm8.96 0H56.5l-2.8-3.32h-1.56v3.32h-1.11v-8.36h2.34c.51 0 .93.03 1.26.1.34.07.64.18.91.35.3.19.54.43.71.72.17.29.26.65.26 1.1 0 .6-.15 1.11-.45 1.52-.3.41-.72.71-1.25.92zm-2.6-6.01c0-.24-.04-.45-.13-.63-.08-.19-.22-.34-.42-.47-.16-.11-.35-.18-.57-.22-.22-.05-.48-.07-.78-.07h-1.31v3.16h1.12c.35 0 .66-.03.92-.09.26-.07.48-.18.67-.35.17-.16.29-.34.37-.54.08-.21.12-.47.12-.78zm10.55-2.35-3.04 8.36h-1.48l-3.04-8.36h1.19l2.62 7.36 2.62-7.36zm4.87 8.36h-3.3v-.85h1.09v-6.65h-1.09v-.85h3.3v.85h-1.09v6.65h1.09zm8.26-.61c-.21.09-.39.17-.56.25-.17.08-.38.16-.65.25-.23.07-.48.13-.75.18-.27.05-.56.08-.88.08-.61 0-1.16-.08-1.66-.25a3.46 3.46 0 0 1-1.29-.8c-.36-.35-.64-.8-.84-1.35-.2-.55-.3-1.19-.3-1.91 0-.69.1-1.3.29-1.85.19-.54.47-1 .84-1.38.35-.36.78-.64 1.29-.83.51-.19 1.07-.29 1.68-.29.45 0 .89.05 1.34.16.45.11.94.3 1.49.57v1.32h-.08c-.46-.39-.92-.67-1.37-.84-.45-.17-.94-.26-1.45-.26-.42 0-.8.07-1.15.21-.34.13-.64.34-.9.63-.26.28-.46.64-.61 1.07-.14.43-.21.92-.21 1.48 0 .59.08 1.09.24 1.52.16.42.37.76.62 1.03.26.28.57.49.92.62.35.13.72.2 1.11.2.53 0 1.03-.09 1.5-.28.47-.19.9-.46 1.31-.83h.08zm7.36.61h-5.51v-8.36h5.51v.99h-4.4v2.29h4.4v.99h-4.4v3.11h4.4zm8.12-2.39c0 .33-.08.65-.23.97-.15.32-.36.59-.63.81-.3.24-.65.43-1.05.56-.4.13-.88.2-1.44.2-.6 0-1.14-.06-1.63-.17-.48-.11-.97-.28-1.47-.5v-1.39h.08c.42.35.91.62 1.47.81.55.19 1.07.29 1.56.29.69 0 1.22-.13 1.61-.39.39-.26.58-.6.58-1.03 0-.37-.09-.65-.28-.82-.18-.17-.46-.31-.83-.41-.28-.07-.59-.14-.92-.19-.33-.05-.67-.11-1.04-.19-.74-.16-1.29-.43-1.65-.8-.35-.38-.53-.88-.53-1.49 0-.7.3-1.27.89-1.72.59-.45 1.34-.67 2.25-.67.59 0 1.13.06 1.62.17.49.11.93.25 1.3.42v1.31h-.08c-.32-.27-.74-.49-1.26-.67-.51-.18-1.04-.27-1.59-.27-.59 0-1.07.12-1.44.37-.36.25-.54.56-.54.95 0 .35.09.62.27.82.18.2.5.35.95.45.24.05.58.12 1.02.19.44.07.81.15 1.12.23.62.17 1.09.42 1.4.75.31.33.47.8.47 1.4z"/>
        </g>
    </g>
</svg>