<?xml version="1.0" encoding="utf-8"?>
<svg xmlns="http://www.w3.org/2000/svg" version="1.0" viewBox="0 0 100 100">
    <!-- https://aspose.app & https://vectorizer.ai/ & https://svgomg.net/ & https://boxy-svg.com & https://favicon.io/ & https://inkscape.org/ -->
    <style>
        * {
            fill: #000;
            stroke: #000;
        }
        .t {
            fill: #f27d51;
            stroke: #f27d51;
        }
    </style>
    <rect style="fill: #fff;" x="0.5" y="0.5" height="99" width="99" rx="15"/>
    <!-- <g transform="translate(0,7.71)"> -->
    <path d="m 5,60.79 19.74,-44.22 c 6.36,11.19 -1.61,26.23 -1.61,26.23 h 11.29 c 5.06,1.1 4.91,7.44 0,8.72 -4.21,0.19 -13.25,-2.06 -19.45,9.27 z"/>
    <path class="t" d="m 59.24,60.79 h -4.18 c -3.72,0 -7.08,-2.21 -8.56,-5.62 L 27.52,11.51 H 30 c 4.31,0 8.22,2.53 9.99,6.46 z"/>
    <path d="m 69.11,32.67 13.08,-17.96 c 1.46,-2.01 3.8,-3.19 6.28,-3.19 H 95 v 49.28 h -2.82 c -3.47,0 -6.29,-2.81 -6.29,-6.29 v -29.62 l -14.9,20.46 c -1.04,1.43 -2.74,1.44 -3.8,0.03 -8.34,-11.1 -16.67,-22.42 -24.45,-33.87 h 7 c 2.48,0 4.82,1.19 6.28,3.19 z"/>
    <rect x="5" y="65.334" width="90" height="1.82"></rect>
    <rect x="5" y="70.334" width="90" height="2.73" class="t"></rect>
    <!-- </g> -->
    <text x="5" y="88.334" textLength="90" style="font-family: 'Arial', sans-serif; font-weight: bold; font-size: 11.5;">CAR SERVICES</text>
</svg>