<?xml version="1.0" encoding="utf-8"?>
<svg xmlns="http://www.w3.org/2000/svg" version="1.0" viewBox="0 0 100 100">
    <!-- https://boxy-svg.com & https://favicon.io/ -->
    <!-- <rect fill="#fff" height="100" width="100" rx="15" /> -->
    <path fill="#000" d="M 3.363 75.12 L 3.363 73.961 L 96.04 73.961 L 96.04 76.279 L 3.363 76.279 L 3.363 75.12 Z M 4.753 68.911 C 4.753 68.539 12.306 51.212 13.975 47.783 C 14.487 46.76 16.662 41.85 18.84 36.891 C 23.521 26.188 24.308 24.705 24.91 24.751 C 25.606 24.798 26.532 28.783 26.857 33.186 C 27.181 38.144 26.207 43.425 24.262 47.55 L 22.827 50.562 L 28.942 50.792 C 35.244 51.024 36.775 51.44 37.653 53.107 C 38.767 55.148 37.838 58.207 35.846 59.133 C 35.196 59.457 32.371 59.827 29.546 60.012 C 22.548 60.475 19.211 62.143 16.108 66.778 L 14.438 69.327 L 9.576 69.327 C 6.933 69.327 4.755 69.142 4.755 68.909 L 4.753 68.911 Z M 91.406 68.818 C 89.23 68.169 87.932 66.871 87.283 64.741 C 86.959 63.582 86.773 57.976 86.773 48.292 C 86.773 38.512 86.635 33.695 86.308 33.882 C 85.891 34.158 84.455 36.012 76.625 46.625 C 72.408 52.323 70.463 54.503 69.533 54.503 C 68.747 54.503 65.178 49.914 55.957 37.218 C 54.66 35.457 52.851 32.956 51.879 31.656 C 44.883 21.973 43.214 19.61 43.214 19.191 C 43.214 18.96 45.253 18.82 47.802 18.82 C 51.741 18.82 52.528 18.958 53.919 19.887 C 55.493 20.908 60.128 26.836 66.245 35.595 C 67.959 38.052 69.625 40.091 69.858 40.091 C 70.135 40.091 71.385 38.652 72.638 36.846 C 79.819 26.743 83.898 21.369 85.009 20.536 C 86.352 19.564 94.231 18.404 95.712 18.96 C 96.455 19.237 96.501 21.184 96.408 44.17 L 96.27 69.101 L 94.648 69.191 C 93.768 69.238 92.284 69.053 91.404 68.821 L 91.406 68.818 Z" style=""/>
    <path fill="#dc7814" d="M 3.363 79.059 L 3.363 77.205 L 96.04 77.205 L 96.04 80.913 L 3.363 80.913 L 3.363 79.059 Z M 53.178 69.375 C 51.092 68.865 49.979 68.123 48.312 66.222 C 46.784 64.462 46.459 63.859 42.519 54.731 C 41.314 51.951 39.784 48.383 39.091 46.853 C 38.349 45.326 36.913 41.987 35.846 39.439 C 34.733 36.889 33.53 34.203 33.158 33.415 C 31.537 30.17 27.458 20.3 27.458 19.604 C 27.458 18.956 27.97 18.819 30.471 18.819 C 33.481 18.819 36.265 19.744 38.161 21.459 C 38.857 22.061 45.253 35.454 50.628 47.549 C 52.76 52.367 53.038 53.017 56.883 61.405 C 58.412 64.834 59.432 67.659 59.339 68.354 C 59.202 69.467 59.016 69.561 56.883 69.652 C 55.632 69.699 53.965 69.561 53.174 69.375 L 53.178 69.375 Z" style=""/>
</svg>